<svg width="50" height="24" viewBox="0 0 50 24" fill="none" xmlns="http://www.w3.org/2000/svg">
<path d="M22.7291 20.9238V7.42383H24.1634V8.9883H24.3383C24.449 8.81835 24.6036 8.6016 24.8018 8.3379C25 8.06835 25.2857 7.82812 25.6588 7.61715C26.0319 7.40625 26.5363 7.30078 27.1718 7.30078C27.9938 7.30078 28.7168 7.50877 29.3406 7.9248C29.9644 8.33497 30.4513 8.92087 30.8011 9.68265C31.1567 10.4385 31.3346 11.332 31.3346 12.3633C31.3346 13.4004 31.1596 14.3027 30.8099 15.0703C30.46 15.832 29.9732 16.4209 29.3493 16.8369C28.7255 17.2529 28.0055 17.4609 27.1893 17.4609C26.5655 17.4609 26.064 17.3554 25.6851 17.1445C25.3061 16.9277 25.0146 16.6846 24.8105 16.415C24.6065 16.1396 24.449 15.9141 24.3383 15.7383H24.2158V20.9238H22.7291ZM26.9969 16.1074C27.6207 16.1074 28.1425 15.9404 28.5622 15.6064C28.982 15.2666 29.2969 14.8125 29.5068 14.2441C29.7225 13.6758 29.8304 13.0429 29.8304 12.3457C29.8304 11.6543 29.7254 11.0302 29.5155 10.4736C29.3056 9.91702 28.9908 9.4746 28.571 9.14647C28.1571 8.81835 27.6323 8.65432 26.9969 8.65432C26.3847 8.65432 25.8716 8.80957 25.4577 9.12015C25.0437 9.4248 24.7289 9.85545 24.5132 10.4121C24.3033 10.9629 24.1984 11.6074 24.1984 12.3457C24.1984 13.084 24.3062 13.7373 24.5219 14.3056C24.7376 14.8681 25.0525 15.3106 25.4664 15.6328C25.8862 15.9492 26.3963 16.1074 26.9969 16.1074ZM35.6547 17.4785C35.0367 17.4785 34.4741 17.3613 33.9669 17.1269C33.4596 16.8867 33.0574 16.541 32.76 16.0898C32.4627 15.6387 32.314 15.0937 32.314 14.455C32.314 13.8925 32.4248 13.4385 32.6463 13.0927C32.8679 12.7412 33.1623 12.4658 33.5296 12.2666C33.9028 12.0615 34.3109 11.9092 34.754 11.8096C35.2029 11.71 35.6547 11.6308 36.1095 11.5723C36.7042 11.4961 37.1852 11.4375 37.5525 11.3965C37.9256 11.3554 38.1967 11.2852 38.3658 11.1856C38.5407 11.0859 38.6281 10.916 38.6281 10.6758V10.6231C38.6281 9.99607 38.4561 9.50977 38.1122 9.1641C37.774 8.8125 37.2581 8.6367 36.5643 8.6367C35.853 8.6367 35.2933 8.79495 34.8852 9.1113C34.477 9.42187 34.1913 9.75585 34.0281 10.1133L32.5939 9.60352C32.8504 9.00585 33.1915 8.54002 33.6171 8.20605C34.0485 7.87207 34.5149 7.6377 35.0164 7.50292C35.5236 7.36816 36.022 7.30078 36.5118 7.30078C36.8266 7.30078 37.1881 7.33887 37.5962 7.41504C38.0043 7.48535 38.4008 7.6377 38.7856 7.87207C39.1762 8.1006 39.4969 8.4492 39.7475 8.91795C40.0041 9.38085 40.1323 10.0019 40.1323 10.7812V17.25H38.6281V15.9141H38.5582C38.4591 16.125 38.29 16.3535 38.051 16.5996C37.8119 16.8398 37.4942 17.0479 37.0977 17.2236C36.7071 17.3935 36.2261 17.4785 35.6547 17.4785ZM35.8821 16.125C36.4768 16.125 36.9782 16.0078 37.3863 15.7734C37.7944 15.5391 38.1034 15.2373 38.3133 14.8681C38.5232 14.4931 38.6281 14.1035 38.6281 13.6992V12.3106C38.564 12.3867 38.4241 12.457 38.2084 12.5215C37.9985 12.58 37.7536 12.6328 37.4737 12.6796C37.1998 12.7266 36.9316 12.7675 36.6692 12.8027C36.4069 12.832 36.1969 12.8554 36.0396 12.8731C35.6489 12.9258 35.2845 13.0108 34.9463 13.1279C34.6082 13.2392 34.3342 13.4062 34.1243 13.6289C33.9202 13.8516 33.8182 14.1562 33.8182 14.5429C33.8182 15.0644 34.0106 15.46 34.3954 15.7295C34.7861 15.9931 35.2816 16.125 35.8821 16.125ZM42.6685 20.9238C42.4119 20.9296 42.1846 20.9121 41.9864 20.8711C41.7881 20.83 41.6482 20.7891 41.5666 20.7481L41.9514 19.4296L42.1001 19.4648C42.6014 19.582 43.0212 19.5556 43.3594 19.3858C43.7034 19.2217 44.0036 18.7852 44.2602 18.0762L44.54 17.3027L40.9369 7.42383H42.5636L45.2571 15.2637H45.3621L48.0556 7.42383H49.6822L45.5369 18.6738C45.3504 19.1836 45.1201 19.6054 44.8461 19.9394C44.5721 20.2734 44.2543 20.5195 43.8928 20.6777C43.5313 20.8418 43.1233 20.9238 42.6685 20.9238Z" fill="#312F2F"/>
<path d="M17.2999 16.0682C17.4081 14.7836 17.0768 13.5397 17.983 12.6289L18.5443 12.0648C19.3108 11.2926 19.7413 10.2464 19.7413 9.1557C19.7413 8.06498 19.3108 7.0188 18.5443 6.24664L17.2864 4.98242L16.3802 5.8932C15.3725 5.92039 14.3716 6.3214 13.6005 7.09625L13.4585 7.23218C12.5539 8.1414 11.3585 8.69992 10.0837 8.80905C8.39299 8.95178 6.81044 9.69263 5.60662 10.9025C4.653 11.8594 3.99206 13.0708 3.70201 14.3934C3.41197 15.716 3.50494 17.0944 3.96996 18.3655L3.51007 18.8276L5.23465 20.5609C5.89036 21.2204 6.66896 21.7436 7.52597 22.1005C8.38291 22.4574 9.3015 22.6412 10.2292 22.6412C11.1569 22.6412 12.0754 22.4574 12.9324 22.1005C13.7894 21.7436 14.568 21.2204 15.2237 20.5609C16.4207 19.3578 17.1579 17.7674 17.2999 16.0682Z" fill="url(#paint0_linear_114_144)"/>
<path d="M13.9725 4.60851C14.6986 4.60905 15.4083 4.82583 16.0119 5.23147C16.6155 5.63712 17.0859 6.21342 17.3638 6.88761C17.6417 7.5618 17.7146 8.30362 17.5732 9.01942C17.4318 9.73522 17.0825 10.3928 16.5695 10.9092L16.441 11.0383C15.6285 11.8542 15.1302 12.9331 15.0343 14.0833C14.9051 15.6082 14.244 17.0381 13.1677 18.1207C12.5796 18.7138 11.8808 19.1842 11.1113 19.5049C10.3418 19.8256 9.51687 19.9905 8.68381 19.9898C7.06065 19.9898 5.43751 19.3645 4.19987 18.1207C3.61131 17.5294 3.14441 16.8275 2.82587 16.0549C2.50733 15.2822 2.34337 14.4541 2.34337 13.6177C2.34337 12.7814 2.50733 11.9533 2.82587 11.1807C3.14441 10.408 3.61131 9.70605 4.19987 9.11482C5.27637 8.0322 6.69957 7.36758 8.21709 7.23891C9.36008 7.14375 10.4354 6.64078 11.2469 5.82516L11.3755 5.69601C11.7149 5.35058 12.1193 5.07651 12.5652 4.88979C13.011 4.70308 13.4895 4.60746 13.9725 4.60851ZM13.9725 3.60938C12.7281 3.60938 11.5513 4.09875 10.6721 4.98234L10.5504 5.11149C9.90791 5.75719 9.04896 6.1582 8.13597 6.23976C6.38434 6.3893 4.74091 7.15734 3.50328 8.4012C2.8203 9.0846 2.27865 9.897 1.90953 10.7917C1.54042 11.6865 1.35115 12.6458 1.35262 13.6144C1.35262 15.5854 2.11685 17.4342 3.50328 18.8275C4.88971 20.221 6.72926 20.989 8.69053 20.989C10.6518 20.989 12.4914 20.221 13.8778 18.8275C15.1155 17.5837 15.8864 15.9253 16.0352 14.1717C16.1108 13.2545 16.5088 12.3943 17.1579 11.7452L17.2864 11.6161C17.7206 11.1811 18.0649 10.6642 18.2993 10.0948C18.5337 9.5256 18.6538 8.91532 18.6525 8.2992C18.6525 7.04859 18.1656 5.86594 17.2864 4.98234C16.4064 4.10148 15.2145 3.60766 13.9725 3.60938Z" fill="#337D63"/>
<path d="M16.4478 11.0383L16.5763 10.9092C16.9174 10.5664 17.1879 10.1595 17.3725 9.71172C17.5572 9.2639 17.6522 8.7839 17.6522 8.29917C17.6522 7.81445 17.5572 7.33445 17.3725 6.88662C17.1879 6.43879 16.9174 6.0319 16.5763 5.68917C16.2352 5.34638 15.8304 5.07445 15.3848 4.88893C14.9392 4.7034 14.4616 4.60791 13.9793 4.60791C13.4969 4.60791 13.0193 4.7034 12.5737 4.88893C12.1281 5.07445 11.7233 5.34638 11.3822 5.68917L11.2537 5.81831C10.4419 6.63485 9.36843 7.13575 8.22388 7.23206C6.70632 7.36074 5.28313 8.02534 4.20663 9.10797C3.61806 9.69927 3.15117 10.4012 2.83263 11.1738C2.51408 11.9465 2.35013 12.7746 2.35013 13.6109C2.35013 14.4472 2.51408 15.2754 2.83263 16.048C3.15117 16.8207 3.61806 17.5226 4.20663 18.1139C4.79493 18.7053 5.49341 19.1746 6.2622 19.4947C7.03098 19.8149 7.855 19.9797 8.68717 19.9797C9.51933 19.9797 10.3434 19.8149 11.1121 19.4947C11.8809 19.1746 12.5794 18.7053 13.1677 18.1139C14.245 17.0319 14.9063 15.6017 15.0343 14.0765C15.1357 12.9346 15.6362 11.8539 16.4478 11.0383Z" fill="#89BA4F"/>
<path d="M16.4478 11.0383L16.5763 10.9092C16.9174 10.5664 17.1879 10.1595 17.3725 9.71172C17.5572 9.2639 17.6522 8.7839 17.6522 8.29917C17.6522 7.81445 17.5572 7.33445 17.3725 6.88662C17.1879 6.43879 16.9174 6.0319 16.5763 5.68917C16.2352 5.34638 15.8304 5.07445 15.3848 4.88893C14.9392 4.7034 14.4616 4.60791 13.9793 4.60791C13.4969 4.60791 13.0193 4.7034 12.5737 4.88893C12.1281 5.07445 11.7233 5.34638 11.3822 5.68917L11.2537 5.81831C10.4419 6.63485 9.36843 7.13575 8.22388 7.23206C6.70632 7.36074 5.28313 8.02534 4.20663 9.10797C3.61806 9.69927 3.15117 10.4012 2.83263 11.1738C2.51408 11.9465 2.35013 12.7746 2.35013 13.6109C2.35013 14.4472 2.51408 15.2754 2.83263 16.048C3.15117 16.8207 3.61806 17.5226 4.20663 18.1139C4.79493 18.7053 5.49341 19.1746 6.2622 19.4947C7.03098 19.8149 7.855 19.9797 8.68717 19.9797C9.51933 19.9797 10.3434 19.8149 11.1121 19.4947C11.8809 19.1746 12.5794 18.7053 13.1677 18.1139C14.245 17.0319 14.9063 15.6017 15.0343 14.0765C15.1357 12.9346 15.6362 11.8539 16.4478 11.0383Z" fill="url(#paint1_radial_114_144)"/>
<g filter="url(#filter0_f_114_144)">
<path d="M8.25426 17.0299C9.03635 17.0299 9.78635 16.7177 10.3393 16.1619C10.8923 15.6062 11.203 14.8524 11.203 14.0664C11.203 13.2805 10.8923 12.5268 10.3393 11.971C9.78635 11.4153 9.03635 11.103 8.25426 11.103C7.47225 11.103 6.72224 11.4153 6.16925 11.971C5.61627 12.5268 5.3056 13.2805 5.3056 14.0664C5.3056 14.8524 5.61627 15.6062 6.16925 16.1619C6.72224 16.7177 7.47225 17.0299 8.25426 17.0299Z" fill="#6A8729"/>
</g>
<path d="M8.98806 16.3126C9.77015 16.3126 10.5202 16.0004 11.0731 15.4446C11.6261 14.8889 11.9368 14.1351 11.9368 13.3492C11.9368 12.5633 11.6261 11.8095 11.0731 11.2537C10.5202 10.698 9.77015 10.3857 8.98806 10.3857C8.20605 10.3857 7.45602 10.698 6.90304 11.2537C6.35005 11.8095 6.03938 12.5633 6.03938 13.3492C6.03938 14.1351 6.35005 14.8889 6.90304 15.4446C7.45602 16.0004 8.20605 16.3126 8.98806 16.3126Z" fill="url(#paint2_radial_114_144)"/>
<defs>
<filter id="filter0_f_114_144" x="3.3056" y="9.10303" width="9.89738" height="9.92676" filterUnits="userSpaceOnUse" color-interpolation-filters="sRGB">
<feFlood flood-opacity="0" result="BackgroundImageFix"/>
<feBlend mode="normal" in="SourceGraphic" in2="BackgroundImageFix" result="shape"/>
<feGaussianBlur stdDeviation="1" result="effect1_foregroundBlur_114_144"/>
</filter>
<linearGradient id="paint0_linear_114_144" x1="19.7414" y1="8.53718" x2="7.37377" y2="21.7296" gradientUnits="userSpaceOnUse">
<stop offset="0.011" stop-color="#A9EC4A"/>
<stop offset="0.13" stop-color="#88C83E"/>
<stop offset="0.257" stop-color="#578546"/>
<stop offset="0.38" stop-color="#55A052"/>
<stop offset="0.601" stop-color="#275B57"/>
<stop offset="0.751" stop-color="#294F59"/>
<stop offset="1" stop-color="#395468"/>
</linearGradient>
<radialGradient id="paint1_radial_114_144" cx="0" cy="0" r="1" gradientUnits="userSpaceOnUse" gradientTransform="translate(4.98776 8.53707) rotate(56.97) scale(13.6483 36.9386)">
<stop offset="0.351" stop-color="#D9F650"/>
<stop offset="0.815" stop-color="#DEFB4F" stop-opacity="0"/>
</radialGradient>
<radialGradient id="paint2_radial_114_144" cx="0" cy="0" r="1" gradientUnits="userSpaceOnUse" gradientTransform="translate(10.271 12.2753) rotate(140.365) scale(4.99463 4.99933)">
<stop offset="0.129" stop-color="#D5A891"/>
<stop offset="0.444" stop-color="#A07751"/>
<stop offset="0.792" stop-color="#57463C"/>
<stop offset="0.983" stop-color="#5B5830"/>
</radialGradient>
</defs>
</svg>
